<svg width="120" height="24" viewBox="0 0 120 24" fill="none" xmlns="http://www.w3.org/2000/svg">
<path d="M17.56 21C17.4001 21.0006 17.2424 20.9629 17.1 20.89L12 18.22L6.90003 20.89C6.56217 21.0676 6.15263 21.0374 5.84446 20.8122C5.53629 20.5869 5.38327 20.2058 5.45003 19.83L6.45003 14.2L2.33003 10.2C2.06809 9.93856 1.97192 9.55387 2.08003 9.19996C2.19828 8.83738 2.51246 8.57363 2.89003 8.51996L8.59003 7.68996L11.1 2.55996C11.2671 2.21497 11.6167 1.99585 12 1.99585C12.3834 1.99585 12.7329 2.21497 12.9 2.55996L15.44 7.67996L21.14 8.50996C21.5176 8.56363 21.8318 8.82738 21.95 9.18996C22.0581 9.54387 21.962 9.92856 21.7 10.19L17.58 14.19L18.58 19.82C18.6529 20.2028 18.4968 20.593 18.18 20.82C17.999 20.9469 17.7809 21.0102 17.56 21Z" fill="#FFC81A"/>
<path d="M41.56 21C41.4001 21.0006 41.2424 20.9629 41.1 20.89L36 18.22L30.9 20.89C30.5622 21.0676 30.1526 21.0374 29.8445 20.8122C29.5363 20.5869 29.3833 20.2058 29.45 19.83L30.45 14.2L26.33 10.2C26.0681 9.93856 25.9719 9.55387 26.08 9.19996C26.1983 8.83738 26.5125 8.57363 26.89 8.51996L32.59 7.68996L35.1 2.55996C35.2671 2.21497 35.6167 1.99585 36 1.99585C36.3834 1.99585 36.7329 2.21497 36.9 2.55996L39.44 7.67996L45.14 8.50996C45.5176 8.56363 45.8318 8.82738 45.95 9.18996C46.0581 9.54387 45.962 9.92856 45.7 10.19L41.58 14.19L42.58 19.82C42.6529 20.2028 42.4968 20.593 42.18 20.82C41.999 20.9469 41.7809 21.0102 41.56 21Z" fill="#FFC81A"/>
<path d="M65.56 21C65.4001 21.0006 65.2424 20.9629 65.1 20.89L60 18.22L54.9 20.89C54.5622 21.0676 54.1526 21.0374 53.8445 20.8122C53.5363 20.5869 53.3833 20.2058 53.45 19.83L54.45 14.2L50.33 10.2C50.0681 9.93856 49.9719 9.55387 50.08 9.19996C50.1983 8.83738 50.5125 8.57363 50.89 8.51996L56.59 7.68996L59.1 2.55996C59.2671 2.21497 59.6167 1.99585 60 1.99585C60.3834 1.99585 60.7329 2.21497 60.9 2.55996L63.44 7.67996L69.14 8.50996C69.5176 8.56363 69.8318 8.82738 69.95 9.18996C70.0581 9.54387 69.962 9.92856 69.7 10.19L65.58 14.19L66.58 19.82C66.6529 20.2028 66.4968 20.593 66.18 20.82C65.999 20.9469 65.7809 21.0102 65.56 21Z" fill="#FFC81A"/>
<g opacity="0.48">
<path d="M89.56 21C89.4001 21.0006 89.2424 20.9629 89.1 20.89L84 18.22L78.9 20.89C78.5622 21.0676 78.1526 21.0374 77.8445 20.8122C77.5363 20.5869 77.3833 20.2058 77.45 19.83L78.45 14.2L74.33 10.2C74.0681 9.93856 73.9719 9.55387 74.08 9.19996C74.1983 8.83738 74.5125 8.57363 74.89 8.51996L80.59 7.68996L83.1 2.55996C83.2671 2.21497 83.6167 1.99585 84 1.99585C84.3834 1.99585 84.7329 2.21497 84.9 2.55996L87.44 7.67996L93.14 8.50996C93.5176 8.56363 93.8318 8.82738 93.95 9.18996C94.0581 9.54387 93.962 9.92856 93.7 10.19L89.58 14.19L90.58 19.82C90.6529 20.2028 90.4968 20.593 90.18 20.82C89.999 20.9469 89.7809 21.0102 89.56 21Z" fill="#919EAB"/>
</g>
<g opacity="0.48">
<path d="M113.56 21C113.4 21.0006 113.242 20.9629 113.1 20.89L108 18.22L102.9 20.89C102.562 21.0676 102.153 21.0374 101.844 20.8122C101.536 20.5869 101.383 20.2058 101.45 19.83L102.45 14.2L98.33 10.2C98.0681 9.93856 97.9719 9.55387 98.08 9.19996C98.1983 8.83738 98.5125 8.57363 98.89 8.51996L104.59 7.68996L107.1 2.55996C107.267 2.21497 107.617 1.99585 108 1.99585C108.383 1.99585 108.733 2.21497 108.9 2.55996L111.44 7.67996L117.14 8.50996C117.518 8.56363 117.832 8.82738 117.95 9.18996C118.058 9.54387 117.962 9.92856 117.7 10.19L113.58 14.19L114.58 19.82C114.653 20.2028 114.497 20.593 114.18 20.82C113.999 20.9469 113.781 21.0102 113.56 21Z" fill="#919EAB"/>
</g>
</svg>
