<svg width="18" height="17" viewBox="0 0 18 17" fill="none" xmlns="http://www.w3.org/2000/svg">
<path d="M13.6334 16.6107C13.5001 16.6112 13.3687 16.5798 13.25 16.519L9.00005 14.294L4.75005 16.519C4.61204 16.5916 4.45644 16.624 4.30094 16.6125C4.14544 16.6011 3.99628 16.5462 3.8704 16.4542C3.74453 16.3622 3.647 16.2367 3.58889 16.092C3.53079 15.9473 3.51444 15.7892 3.54171 15.6357L4.37505 10.944L0.941713 7.61068C0.834594 7.50379 0.758606 7.36974 0.721903 7.22293C0.6852 7.07612 0.689167 6.92208 0.73338 6.77735C0.78168 6.62925 0.870527 6.49765 0.989838 6.39748C1.10915 6.29732 1.25415 6.23261 1.40838 6.21069L6.15838 5.51902L8.25005 1.24402C8.31828 1.10312 8.42483 0.984303 8.55747 0.901162C8.69012 0.818022 8.8435 0.773926 9.00005 0.773926C9.15659 0.773926 9.30997 0.818022 9.44262 0.901162C9.57526 0.984303 9.68181 1.10312 9.75005 1.24402L11.8667 5.51068L16.6167 6.20235C16.7709 6.22427 16.9159 6.28899 17.0353 6.38915C17.1546 6.48931 17.2434 6.62091 17.2917 6.76902C17.3359 6.91375 17.3399 7.06778 17.3032 7.2146C17.2665 7.36141 17.1905 7.49546 17.0834 7.60235L13.65 10.9357L14.4834 15.6274C14.5131 15.7836 14.4976 15.9451 14.4385 16.0927C14.3794 16.2404 14.2793 16.3681 14.15 16.4607C13.9991 16.5664 13.8174 16.6192 13.6334 16.6107Z" fill="#FFC81A"/>
</svg>
